<svg width="108" height="98" viewBox="0 0 108 98" fill="none" xmlns="http://www.w3.org/2000/svg">
<g filter="url(#filter0_d)">
<path d="M27.3021 35.301H17.298C9.96543 35.301 4 41.2664 4 48.599V75.2143C4 79.0963 7.1582 82.2545 11.0402 82.2545H33.56C37.442 82.2545 40.6002 79.0963 40.6002 75.2143V48.599C40.6002 41.2664 34.6348 35.301 27.3021 35.301Z" fill="#96D1D9"/>
</g>
<path d="M22.3002 35.301H17.298C9.96543 35.301 4 41.2664 4 48.599V75.2143C4 79.0963 7.1582 82.2545 11.0402 82.2545H22.3L22.3002 35.301Z" fill="#F4F2E6"/>
<path d="M30.8949 36.6033H13.7054V38.1974C13.7054 41.4715 16.3595 44.1256 19.6336 44.1256H24.967C28.241 44.1256 30.8951 41.4715 30.8951 38.1974L30.8949 36.6033Z" fill="#FC6249"/>
<path d="M22.3 36.6033H13.7054V38.1974C13.7054 41.4715 16.3595 44.1256 19.6336 44.1256H22.3002L22.3 36.6033Z" fill="#FC8774"/>
<path d="M22.3 48.2524C26.0765 48.2524 29.573 46.5432 31.8926 43.5629L35.876 38.4453C34.6717 37.4268 33.2853 36.618 31.7722 36.0762L28.1886 40.6801C26.7646 42.5096 24.6181 43.5588 22.3 43.5588C19.9818 43.5588 17.8351 42.5096 16.4113 40.6801L12.8277 36.0762C11.3146 36.618 9.9283 37.4268 8.724 38.4453L12.7074 43.5629C15.0271 46.5432 18.5234 48.2524 22.3 48.2524Z" fill="#428596"/>
<path d="M22.3 48.2524V43.5588C19.9816 43.5588 17.8351 42.5096 16.4113 40.6801L12.8277 36.0762C11.3146 36.618 9.9283 37.4268 8.724 38.4453L12.7074 43.5629C15.0271 46.5432 18.5234 48.2524 22.3 48.2524Z" fill="#60C1CF"/>
<path d="M22.544 10.6385H22.0565C18.4203 10.6385 14.9076 12.159 12.4192 14.8099C9.93069 17.4609 8.63499 21.0627 8.86487 24.6916L9.10862 28.5426C9.54807 35.4863 15.3426 40.9258 22.3002 40.9258C29.258 40.9258 35.0526 35.4865 35.492 28.5426L35.7358 24.6916C35.9657 21.0629 34.6699 17.4611 32.1815 14.8099C29.693 12.1588 26.1799 10.6385 22.544 10.6385Z" fill="#FC8774"/>
<path d="M22.3002 10.6385H22.0565C18.4203 10.6385 14.9076 12.159 12.4192 14.8099C9.93069 17.4609 8.63499 21.0627 8.86487 24.6916L9.10862 28.5426C9.54807 35.4863 15.3426 40.9258 22.3002 40.9258V10.6385Z" fill="#FCAEA1"/>
<g filter="url(#filter1_d)">
<path d="M90.7019 35.301H80.6978C73.3652 35.301 67.3998 41.2664 67.3998 48.599V75.2143C67.3998 79.0963 70.558 82.2545 74.44 82.2545H96.9597C100.842 82.2545 104 79.0963 104 75.2143V48.599C104 41.2664 98.0345 35.301 90.7019 35.301Z" fill="#96D1D9"/>
</g>
<path d="M85.6998 35.301H80.6977C73.3651 35.301 67.3997 41.2664 67.3997 48.599V75.2143C67.3997 79.0963 70.5579 82.2545 74.4399 82.2545H85.6997L85.6998 35.301Z" fill="#F4F2E6"/>
<path d="M94.2947 36.6033H77.1053V38.1974C77.1053 41.4715 79.7594 44.1256 83.0334 44.1256H88.3668C91.6408 44.1256 94.2949 41.4715 94.2949 38.1974L94.2947 36.6033Z" fill="#FC6249"/>
<path d="M85.6998 36.6033H77.1051V38.1974C77.1051 41.4715 79.7592 44.1256 83.0332 44.1256H85.6998V36.6033Z" fill="#FC8774"/>
<path d="M85.6998 48.2524C89.4764 48.2524 92.9729 46.5432 95.2924 43.5629L99.2758 38.4453C98.0715 37.4268 96.6852 36.618 95.1721 36.0762L91.5885 40.6801C90.1645 42.5096 88.018 43.5588 85.6998 43.5588C83.3816 43.5588 81.235 42.5096 79.8111 40.6801L76.2277 36.0762C74.7146 36.618 73.3283 37.4268 72.124 38.4453L76.1074 43.5629C78.4268 46.5432 81.9232 48.2524 85.6998 48.2524Z" fill="#428596"/>
<path d="M85.6998 48.2524V43.5588C83.3815 43.5588 81.235 42.5096 79.8111 40.6801L76.2277 36.0762C74.7146 36.618 73.3283 37.4268 72.124 38.4453L76.1074 43.5629C78.4268 46.5432 81.9232 48.2524 85.6998 48.2524Z" fill="#60C1CF"/>
<path d="M85.9436 10.6385H85.4561C81.8199 10.6385 78.3072 12.159 75.8188 14.8099C73.3303 17.4609 72.0346 21.0627 72.2645 24.6916L72.5082 28.5426C72.9477 35.4863 78.7422 40.9258 85.6998 40.9258C92.6576 40.9258 98.4522 35.4865 98.8916 28.5426L99.1354 24.6916C99.3652 21.0629 98.0695 17.4611 95.5811 14.8099C93.0922 12.1588 89.5797 10.6385 85.9436 10.6385Z" fill="#FC8774"/>
<path d="M85.6998 10.6385H85.4561C81.8199 10.6385 78.3072 12.159 75.8188 14.8099C73.3303 17.4609 72.0346 21.0627 72.2645 24.6916L72.5082 28.5426C72.9477 35.4863 78.7422 40.9258 85.6998 40.9258V10.6385Z" fill="#FCAEA1"/>
<path d="M33.7468 52.0561H31.4867C29.8759 52.0561 28.5701 53.3619 28.5701 54.9727C28.5701 56.5834 29.8759 57.8893 31.4867 57.8893H33.7468C35.3576 57.8893 36.6634 56.5834 36.6634 54.9727C36.6634 53.3619 35.3576 52.0561 33.7468 52.0561Z" fill="#428596"/>
<g filter="url(#filter2_d)">
<path d="M60.1045 30.6504H47.6715C38.5586 30.6504 31.1447 38.0643 31.1447 47.1771V80.2543C31.1447 85.0789 35.0697 89.0039 39.8943 89.0039H67.8816C72.7062 89.0039 76.6312 85.0789 76.6312 80.2543V47.1771C76.6312 38.0643 69.2174 30.6504 60.1045 30.6504Z" fill="#96D1D9"/>
</g>
<path d="M53.8879 30.6504H47.6713C38.5584 30.6504 31.1445 38.0643 31.1445 47.1771V80.2543C31.1445 85.0789 35.0695 89.0039 39.8941 89.0039H53.8877L53.8879 30.6504Z" fill="#F4F2E6"/>
<path d="M64.5693 32.269H43.2064V34.25C43.2064 38.3189 46.5049 41.6174 50.5738 41.6174H57.2021C61.2711 41.6174 64.5695 38.3189 64.5695 34.25V32.269H64.5693Z" fill="#FC6249"/>
<path d="M53.8879 32.269H43.2064V34.2502C43.2064 38.3191 46.5049 41.6176 50.5738 41.6176H53.8879V32.269Z" fill="#FC8774"/>
<path d="M53.8879 46.7463C58.5813 46.7463 62.9268 44.6221 65.8094 40.9183L70.76 34.5582C69.2633 33.2924 67.5404 32.2871 65.66 31.6139L61.2063 37.3355C59.4365 39.6092 56.769 40.9133 53.8877 40.9133C51.0065 40.9133 48.3389 39.6094 46.5691 37.3355L42.1156 31.6139C40.2352 32.2871 38.5123 33.2924 37.0156 34.5582L41.9662 40.9183C44.849 44.6221 49.1943 46.7463 53.8879 46.7463Z" fill="#428596"/>
<path d="M53.8879 46.7463V40.9133C51.0066 40.9133 48.339 39.6094 46.5693 37.3355L42.1158 31.6139C40.2353 32.2871 38.5125 33.2924 37.0158 34.5582L41.9664 40.9183C44.849 44.6221 49.1943 46.7463 53.8879 46.7463Z" fill="#60C1CF"/>
<path d="M54.1908 0H53.5849C49.066 0 44.7006 1.88965 41.6078 5.18438C38.515 8.4791 36.9048 12.9553 37.1904 17.465L37.4935 22.251C38.0396 30.8807 45.241 37.6406 53.8879 37.6406C62.5349 37.6406 69.7363 30.8807 70.2824 22.251L70.5853 17.465C70.8709 12.9553 69.2607 8.47891 66.1679 5.18438C63.0752 1.88945 58.7095 0 54.1908 0Z" fill="#FC8774"/>
<path d="M53.8879 0H53.5849C49.066 0 44.7006 1.88965 41.6078 5.18438C38.515 8.4791 36.9048 12.9553 37.1904 17.465L37.4935 22.251C38.0396 30.8807 45.241 37.6406 53.8879 37.6406V0Z" fill="#FCAEA1"/>
<path d="M68.6162 52.0561H66.3561C64.7453 52.0561 63.4395 53.3619 63.4395 54.9727C63.4395 56.5834 64.7453 57.8893 66.3561 57.8893H68.6162C70.227 57.8893 71.5328 56.5834 71.5328 54.9727C71.5328 53.3619 70.227 52.0561 68.6162 52.0561Z" fill="#428596"/>
<path d="M98.2402 52.0561H95.9801C94.3693 52.0561 93.0635 53.3619 93.0635 54.9727C93.0635 56.5834 94.3693 57.8893 95.9801 57.8893H98.2402C99.851 57.8893 101.157 56.5834 101.157 54.9727C101.157 53.3619 99.851 52.0561 98.2402 52.0561Z" fill="#428596"/>
<defs>
<filter id="filter0_d" x="0" y="35.301" width="44.6002" height="54.9535" filterUnits="userSpaceOnUse" color-interpolation-filters="sRGB">
<feFlood flood-opacity="0" result="BackgroundImageFix"/>
<feColorMatrix in="SourceAlpha" type="matrix" values="0 0 0 0 0 0 0 0 0 0 0 0 0 0 0 0 0 0 127 0"/>
<feOffset dy="4"/>
<feGaussianBlur stdDeviation="2"/>
<feColorMatrix type="matrix" values="0 0 0 0 0 0 0 0 0 0 0 0 0 0 0 0 0 0 0.25 0"/>
<feBlend mode="normal" in2="BackgroundImageFix" result="effect1_dropShadow"/>
<feBlend mode="normal" in="SourceGraphic" in2="effect1_dropShadow" result="shape"/>
</filter>
<filter id="filter1_d" x="63.3998" y="35.301" width="44.6002" height="54.9535" filterUnits="userSpaceOnUse" color-interpolation-filters="sRGB">
<feFlood flood-opacity="0" result="BackgroundImageFix"/>
<feColorMatrix in="SourceAlpha" type="matrix" values="0 0 0 0 0 0 0 0 0 0 0 0 0 0 0 0 0 0 127 0"/>
<feOffset dy="4"/>
<feGaussianBlur stdDeviation="2"/>
<feColorMatrix type="matrix" values="0 0 0 0 0 0 0 0 0 0 0 0 0 0 0 0 0 0 0.25 0"/>
<feBlend mode="normal" in2="BackgroundImageFix" result="effect1_dropShadow"/>
<feBlend mode="normal" in="SourceGraphic" in2="effect1_dropShadow" result="shape"/>
</filter>
<filter id="filter2_d" x="27.1447" y="30.6504" width="53.4865" height="66.3535" filterUnits="userSpaceOnUse" color-interpolation-filters="sRGB">
<feFlood flood-opacity="0" result="BackgroundImageFix"/>
<feColorMatrix in="SourceAlpha" type="matrix" values="0 0 0 0 0 0 0 0 0 0 0 0 0 0 0 0 0 0 127 0"/>
<feOffset dy="4"/>
<feGaussianBlur stdDeviation="2"/>
<feColorMatrix type="matrix" values="0 0 0 0 0 0 0 0 0 0 0 0 0 0 0 0 0 0 0.25 0"/>
<feBlend mode="normal" in2="BackgroundImageFix" result="effect1_dropShadow"/>
<feBlend mode="normal" in="SourceGraphic" in2="effect1_dropShadow" result="shape"/>
</filter>
</defs>
</svg>
