<svg width="24" height="24" viewBox="0 0 24 24" fill="none" xmlns="http://www.w3.org/2000/svg">
<g clip-path="url(#clip0)">
<path d="M15.3105 8.69525C15 8.69525 14.7484 8.94686 14.7484 9.25731V19.8803C14.7484 20.1905 15 20.4423 15.3105 20.4423C15.6209 20.4423 15.8725 20.1905 15.8725 19.8803V9.25731C15.8725 8.94686 15.6209 8.69525 15.3105 8.69525Z" fill="#FC6249"/>
<path d="M8.67815 8.69525C8.3677 8.69525 8.11609 8.94686 8.11609 9.25731V19.8803C8.11609 20.1905 8.3677 20.4423 8.67815 20.4423C8.9886 20.4423 9.24021 20.1905 9.24021 19.8803V9.25731C9.24021 8.94686 8.9886 8.69525 8.67815 8.69525Z" fill="#FC6249"/>
<path d="M3.84439 7.14485V20.9928C3.84439 21.8113 4.14452 22.58 4.66881 23.1315C5.19069 23.6845 5.91698 23.9985 6.67708 23.9998H17.3114C18.0717 23.9985 18.798 23.6845 19.3197 23.1315C19.844 22.58 20.1441 21.8113 20.1441 20.9928V7.14485C21.1863 6.86821 21.8617 5.86133 21.7223 4.79188C21.5826 3.72265 20.6717 2.92282 19.5932 2.9226H16.7155V2.22002C16.7188 1.6292 16.4852 1.06188 16.067 0.644502C15.6487 0.227349 15.0805 -0.00493945 14.4897 -0.000109256H9.49879C8.90797 -0.00493945 8.33976 0.227349 7.92151 0.644502C7.50326 1.06188 7.26965 1.6292 7.27295 2.22002V2.9226H4.39525C3.3168 2.92282 2.40587 3.72265 2.26623 4.79188C2.12681 5.86133 2.80216 6.86821 3.84439 7.14485ZM17.3114 22.8757H6.67708C5.71609 22.8757 4.9685 22.0502 4.9685 20.9928V7.19425H19.02V20.9928C19.02 22.0502 18.2724 22.8757 17.3114 22.8757ZM8.39707 2.22002C8.39333 1.92736 8.50838 1.64567 8.71608 1.43907C8.92356 1.23247 9.2059 1.11896 9.49879 1.12401H14.4897C14.7826 1.11896 15.0649 1.23247 15.2724 1.43907C15.4801 1.64545 15.5952 1.92736 15.5914 2.22002V2.9226H8.39707V2.22002ZM4.39525 4.04672H19.5932C20.152 4.04672 20.6049 4.49966 20.6049 5.05842C20.6049 5.61719 20.152 6.07013 19.5932 6.07013H4.39525C3.83648 6.07013 3.38354 5.61719 3.38354 5.05842C3.38354 4.49966 3.83648 4.04672 4.39525 4.04672Z" fill="#FC6249"/>
<path d="M11.9943 8.69525C11.6839 8.69525 11.4323 8.94686 11.4323 9.25731V19.8803C11.4323 20.1905 11.6839 20.4423 11.9943 20.4423C12.3048 20.4423 12.5564 20.1905 12.5564 19.8803V9.25731C12.5564 8.94686 12.3048 8.69525 11.9943 8.69525Z" fill="#FC6249"/>
</g>
<defs>
<clipPath id="clip0">
<rect width="24" height="24" fill="white"/>
</clipPath>
</defs>
</svg>
