<svg width="24" height="24" viewBox="0 0 24 24" fill="none" xmlns="http://www.w3.org/2000/svg">
<g clip-path="url(#clip0)">
<path d="M19.714 12C19.2406 12 18.8569 12.3837 18.8569 12.8571V21.4284C18.8569 21.9018 18.4731 22.2856 17.9997 22.2856H2.57139C2.098 22.2856 1.71425 21.9018 1.71425 21.4284V4.28581C1.71425 3.81241 2.098 3.42866 2.57139 3.42866H12.857C13.3304 3.42866 13.7141 3.04491 13.7141 2.57151C13.7141 2.09812 13.3304 1.71442 12.857 1.71442H2.57139C1.15125 1.71442 0 2.86567 0 4.28581V21.4284C0 22.8486 1.15125 23.9998 2.57139 23.9998H17.9998C19.4199 23.9998 20.5712 22.8486 20.5712 21.4284V12.8571C20.5712 12.3837 20.1874 12 19.714 12Z" fill="#96D1D9"/>
<path d="M23.0392 0.961661C22.4237 0.346133 21.589 0.000401397 20.7186 0.000501842C19.8477 -0.00200929 19.0121 0.344325 18.3984 0.962213L7.10816 12.2514C7.0145 12.3458 6.94384 12.4605 6.9016 12.5866L5.18735 17.7294C5.03774 18.1785 5.28057 18.6639 5.72971 18.8134C5.81684 18.8424 5.9081 18.8573 5.9999 18.8574C6.09191 18.8572 6.18337 18.8424 6.27075 18.8137L11.4135 17.0994C11.5399 17.0572 11.6546 16.9862 11.7487 16.892L23.0388 5.60187C24.3202 4.3206 24.3204 2.24309 23.0392 0.961661ZM21.8268 4.39071L10.6841 15.5334L7.35501 16.6451L8.46327 13.3203L19.6103 2.1776C20.2231 1.56599 21.2157 1.56699 21.8273 2.17981C22.1195 2.47256 22.2841 2.86886 22.2854 3.28244C22.2864 3.69824 22.1213 4.09721 21.8268 4.39071Z" fill="#96D1D9"/>
</g>
<defs>
<clipPath id="clip0">
<rect width="24" height="24" fill="white"/>
</clipPath>
</defs>
</svg>
